<svg width="103" height="22" viewBox="0 0 103 22" fill="none" xmlns="http://www.w3.org/2000/svg">
<path d="M7.71094 9V11.5H0.484375V9H7.71094ZM2.125 6.125H5.45313V17.3125C5.45313 17.6198 5.5 17.8594 5.59375 18.0312C5.6875 18.1979 5.81771 18.3151 5.98438 18.3828C6.15625 18.4505 6.35417 18.4844 6.57813 18.4844C6.73438 18.4844 6.89063 18.4714 7.04688 18.4453C7.20312 18.4141 7.32292 18.3906 7.40625 18.375L7.92969 20.8516C7.76302 20.9036 7.52865 20.9635 7.22656 21.0313C6.92448 21.1042 6.55729 21.1484 6.125 21.1641C5.32292 21.1953 4.61979 21.0885 4.01563 20.8437C3.41667 20.599 2.95052 20.2187 2.61719 19.7031C2.28385 19.1875 2.11979 18.5365 2.125 17.75V6.125ZM9.87891 21V9H13.1055V11.0937H13.2305C13.4492 10.349 13.8164 9.78646 14.332 9.40625C14.8477 9.02083 15.4414 8.82812 16.1133 8.82812C16.2799 8.82812 16.4596 8.83854 16.6523 8.85937C16.8451 8.88021 17.0143 8.90885 17.1602 8.94531V11.8984C17.0039 11.8516 16.7878 11.8099 16.5117 11.7734C16.2357 11.737 15.9831 11.7188 15.7539 11.7188C15.2643 11.7188 14.8268 11.8255 14.4414 12.0391C14.0612 12.2474 13.7591 12.5391 13.5352 12.9141C13.3164 13.2891 13.207 13.7214 13.207 14.2109V21H9.87891ZM23.791 21.2344C22.5566 21.2344 21.4941 20.9844 20.6035 20.4844C19.7181 19.9792 19.0358 19.2656 18.5566 18.3437C18.0775 17.4167 17.8379 16.3203 17.8379 15.0547C17.8379 13.8203 18.0775 12.737 18.5566 11.8047C19.0358 10.8724 19.7103 10.1458 20.5801 9.625C21.4551 9.10417 22.4811 8.84375 23.6582 8.84375C24.4499 8.84375 25.1868 8.97135 25.8691 9.22656C26.5566 9.47656 27.1556 9.85417 27.666 10.3594C28.1816 10.8646 28.5827 11.5 28.8691 12.2656C29.1556 13.026 29.2988 13.9167 29.2988 14.9375V15.8516H19.166V13.7891H26.166C26.166 13.3099 26.0618 12.8854 25.8535 12.5156C25.6452 12.1458 25.3561 11.8568 24.9863 11.6484C24.6217 11.4349 24.1973 11.3281 23.7129 11.3281C23.2077 11.3281 22.7598 11.4453 22.3691 11.6797C21.9837 11.9089 21.6816 12.2187 21.4629 12.6094C21.2441 12.9948 21.1322 13.4245 21.127 13.8984V15.8594C21.127 16.4531 21.2363 16.9661 21.4551 17.3984C21.679 17.8307 21.9941 18.1641 22.4004 18.3984C22.8066 18.6328 23.2884 18.75 23.8457 18.75C24.2155 18.75 24.554 18.6979 24.8613 18.5938C25.1686 18.4896 25.4316 18.3333 25.6504 18.125C25.8691 17.9167 26.0358 17.6615 26.1504 17.3594L29.2285 17.5625C29.0723 18.3021 28.752 18.9479 28.2676 19.5C27.7884 20.0469 27.1686 20.474 26.4082 20.7813C25.653 21.0833 24.7806 21.2344 23.791 21.2344ZM31.4707 21V9H34.7988V21H31.4707ZM33.1426 7.45312C32.6478 7.45312 32.2233 7.28906 31.8691 6.96094C31.5202 6.6276 31.3457 6.22917 31.3457 5.76562C31.3457 5.30729 31.5202 4.91406 31.8691 4.58594C32.2233 4.2526 32.6478 4.08594 33.1426 4.08594C33.6374 4.08594 34.0592 4.2526 34.4082 4.58594C34.7624 4.91406 34.9395 5.30729 34.9395 5.76562C34.9395 6.22917 34.7624 6.6276 34.4082 6.96094C34.0592 7.28906 33.6374 7.45312 33.1426 7.45312ZM40.793 14.0625V21H37.4648V9H40.6367V11.1172H40.7773C41.043 10.4193 41.4883 9.86719 42.1133 9.46094C42.7383 9.04948 43.4961 8.84375 44.3867 8.84375C45.2201 8.84375 45.9466 9.02604 46.5664 9.39062C47.1862 9.75521 47.668 10.276 48.0117 10.9531C48.3555 11.625 48.5273 12.4271 48.5273 13.3594V21H45.1992V13.9531C45.2044 13.2187 45.0169 12.6458 44.6367 12.2344C44.2565 11.8177 43.7331 11.6094 43.0664 11.6094C42.6185 11.6094 42.2227 11.7057 41.8789 11.8984C41.5404 12.0911 41.2747 12.3724 41.082 12.7422C40.8945 13.1068 40.7982 13.5469 40.793 14.0625ZM56.6191 21.2344C55.3848 21.2344 54.3223 20.9844 53.4316 20.4844C52.5462 19.9792 51.8639 19.2656 51.3848 18.3437C50.9056 17.4167 50.666 16.3203 50.666 15.0547C50.666 13.8203 50.9056 12.737 51.3848 11.8047C51.8639 10.8724 52.5384 10.1458 53.4082 9.625C54.2832 9.10417 55.3092 8.84375 56.4863 8.84375C57.278 8.84375 58.015 8.97135 58.6973 9.22656C59.3848 9.47656 59.9837 9.85417 60.4941 10.3594C61.0098 10.8646 61.4108 11.5 61.6973 12.2656C61.9837 13.026 62.127 13.9167 62.127 14.9375V15.8516H51.9941V13.7891H58.9941C58.9941 13.3099 58.89 12.8854 58.6816 12.5156C58.4733 12.1458 58.1842 11.8568 57.8145 11.6484C57.4499 11.4349 57.0254 11.3281 56.541 11.3281C56.0358 11.3281 55.5879 11.4453 55.1973 11.6797C54.8118 11.9089 54.5098 12.2187 54.291 12.6094C54.0723 12.9948 53.9603 13.4245 53.9551 13.8984V15.8594C53.9551 16.4531 54.0645 16.9661 54.2832 17.3984C54.5072 17.8307 54.8223 18.1641 55.2285 18.3984C55.6348 18.6328 56.1165 18.75 56.6738 18.75C57.0436 18.75 57.3822 18.6979 57.6895 18.5938C57.9967 18.4896 58.2598 18.3333 58.4785 18.125C58.6973 17.9167 58.8639 17.6615 58.9785 17.3594L62.0566 17.5625C61.9004 18.3021 61.5801 18.9479 61.0957 19.5C60.6165 20.0469 59.9967 20.474 59.2363 20.7813C58.4811 21.0833 57.6087 21.2344 56.6191 21.2344ZM66.2441 21.2031C65.7285 21.2031 65.2858 21.0208 64.916 20.6562C64.5514 20.2865 64.3691 19.8437 64.3691 19.3281C64.3691 18.8177 64.5514 18.3802 64.916 18.0156C65.2858 17.651 65.7285 17.4687 66.2441 17.4687C66.7441 17.4687 67.1816 17.651 67.5566 18.0156C67.9316 18.3802 68.1191 18.8177 68.1191 19.3281C68.1191 19.6719 68.0306 19.987 67.8535 20.2734C67.6816 20.5547 67.4551 20.7812 67.1738 20.9531C66.8926 21.1198 66.5827 21.2031 66.2441 21.2031ZM70.8516 21V9H74.0234V11.1172H74.1641C74.4141 10.4141 74.8307 9.85937 75.4141 9.45312C75.9974 9.04687 76.6953 8.84375 77.5078 8.84375C78.3307 8.84375 79.0313 9.04948 79.6094 9.46094C80.1875 9.86719 80.5729 10.4193 80.7656 11.1172H80.8906C81.1354 10.4297 81.5781 9.88021 82.2188 9.46875C82.8646 9.05208 83.6276 8.84375 84.5078 8.84375C85.6276 8.84375 86.5365 9.20052 87.2344 9.91406C87.9375 10.6224 88.2891 11.6276 88.2891 12.9297V21H84.9688V13.5859C84.9688 12.9193 84.7917 12.4193 84.4375 12.0859C84.0833 11.7526 83.6406 11.5859 83.1094 11.5859C82.5052 11.5859 82.0339 11.7786 81.6953 12.1641C81.3568 12.5443 81.1875 13.0469 81.1875 13.6719V21H77.9609V13.5156C77.9609 12.9271 77.7917 12.4583 77.4531 12.1094C77.1198 11.7604 76.6797 11.5859 76.1328 11.5859C75.763 11.5859 75.4297 11.6797 75.1328 11.8672C74.8411 12.0495 74.6094 12.3073 74.4375 12.6406C74.2656 12.9687 74.1797 13.3542 74.1797 13.7969V21H70.8516ZM96.3867 21.2344C95.1523 21.2344 94.0898 20.9844 93.1992 20.4844C92.3138 19.9792 91.6315 19.2656 91.1523 18.3437C90.6732 17.4167 90.4336 16.3203 90.4336 15.0547C90.4336 13.8203 90.6732 12.737 91.1523 11.8047C91.6315 10.8724 92.306 10.1458 93.1758 9.625C94.0508 9.10417 95.0768 8.84375 96.2539 8.84375C97.0456 8.84375 97.7826 8.97135 98.4648 9.22656C99.1523 9.47656 99.7513 9.85417 100.262 10.3594C100.777 10.8646 101.178 11.5 101.465 12.2656C101.751 13.026 101.895 13.9167 101.895 14.9375V15.8516H91.7617V13.7891H98.7617C98.7617 13.3099 98.6576 12.8854 98.4492 12.5156C98.2409 12.1458 97.9518 11.8568 97.582 11.6484C97.2174 11.4349 96.793 11.3281 96.3086 11.3281C95.8034 11.3281 95.3555 11.4453 94.9648 11.6797C94.5794 11.9089 94.2773 12.2187 94.0586 12.6094C93.8398 12.9948 93.7279 13.4245 93.7227 13.8984V15.8594C93.7227 16.4531 93.832 16.9661 94.0508 17.3984C94.2747 17.8307 94.5898 18.1641 94.9961 18.3984C95.4023 18.6328 95.8841 18.75 96.4414 18.75C96.8112 18.75 97.1497 18.6979 97.457 18.5938C97.7643 18.4896 98.0273 18.3333 98.2461 18.125C98.4648 17.9167 98.6315 17.6615 98.7461 17.3594L101.824 17.5625C101.668 18.3021 101.348 18.9479 100.863 19.5C100.384 20.0469 99.7643 20.474 99.0039 20.7813C98.2487 21.0833 97.3763 21.2344 96.3867 21.2344Z" fill="#89C5CC"/>
</svg>
