<svg width="20" height="21" viewBox="0 0 20 21" fill="none" xmlns="http://www.w3.org/2000/svg">
<path d="M14.6 12.5C14.4 12.4 13.1 11.8 12.9 11.7C12.7 11.6 12.5 11.6 12.3 11.8C12.1 12 11.7 12.6 11.5 12.8C11.4 13 11.2 13 11 12.9C10.3 12.6 9.6 12.2 9 11.7C8.5 11.2 8 10.6 7.6 10C7.5 9.80001 7.6 9.60001 7.7 9.50001C7.8 9.40001 7.9 9.20001 8.1 9.10001C8.2 9.00001 8.3 8.80001 8.3 8.70001C8.4 8.60001 8.4 8.40001 8.3 8.30001C8.2 8.20001 7.7 7.00001 7.5 6.50001C7.4 5.80001 7.2 5.80001 7 5.80001C6.9 5.80001 6.7 5.80001 6.5 5.80001C6.3 5.80001 6 6.00001 5.9 6.10001C5.3 6.70001 5 7.40001 5 8.20001C5.1 9.10001 5.4 10 6 10.8C7.1 12.4 8.5 13.7 10.2 14.5C10.7 14.7 11.1 14.9 11.6 15C12.1 15.2 12.6 15.2 13.2 15.1C13.9 15 14.5 14.5 14.9 13.9C15.1 13.5 15.1 13.1 15 12.7C15 12.7 14.8 12.6 14.6 12.5ZM17.1 3.40001C13.2 -0.499994 6.9 -0.499994 3 3.40001C-0.2 6.60001 -0.8 11.5 1.4 15.4L0 20.5L5.3 19.1C6.8 19.9 8.4 20.3 10 20.3C15.5 20.3 19.9 15.9 19.9 10.4C20 7.80001 18.9 5.30001 17.1 3.40001ZM14.4 17.4C13.1 18.2 11.6 18.7 10 18.7C8.5 18.7 7.1 18.3 5.8 17.6L5.5 17.4L2.4 18.2L3.2 15.2L3 14.9C0.6 10.9 1.8 5.90001 5.7 3.40001C9.6 0.900006 14.6 2.20001 17 6.00001C19.4 9.90001 18.3 15 14.4 17.4Z" fill="#F9F9F9"/>
</svg>
